<svg width="1336" height="665" viewBox="0 0 1336 665" fill="none" xmlns="http://www.w3.org/2000/svg">
<g filter="url(#filter0_d_10_2)">
<path d="M203.246 366L140.844 147.738H191.234L227.416 299.35H229.32L269.018 147.738H312.23L351.781 299.789H353.832L389.867 147.738H440.404L377.855 366H332.885L291.43 223.324H289.672L248.363 366H203.246ZM542.158 368.93C522.822 368.93 505.439 364.535 490.01 355.746C474.58 346.957 462.373 334.213 453.389 317.514C444.404 300.814 439.912 280.648 439.912 257.016C439.912 233.188 444.404 212.924 453.389 196.225C462.373 179.525 474.58 166.781 490.01 157.992C505.439 149.203 522.822 144.809 542.158 144.809C561.494 144.809 578.828 149.203 594.16 157.992C609.59 166.781 621.797 179.525 630.781 196.225C639.766 212.924 644.258 233.188 644.258 257.016C644.258 280.844 639.766 301.107 630.781 317.807C621.797 334.408 609.59 347.104 594.16 355.893C578.828 364.584 561.494 368.93 542.158 368.93ZM486.641 257.016C486.641 280.062 491.67 297.689 501.729 309.896C511.885 322.104 525.361 328.207 542.158 328.207C558.857 328.207 572.236 322.104 582.295 309.896C592.451 297.689 597.529 280.062 597.529 257.016C597.529 233.871 592.451 216.195 582.295 203.988C572.236 191.684 558.857 185.531 542.158 185.531C525.361 185.531 511.885 191.684 501.729 203.988C491.67 216.195 486.641 233.871 486.641 257.016ZM657.535 366V147.738H743.375C768.18 147.738 787.418 154.232 801.09 167.221C814.859 180.209 821.744 197.494 821.744 219.076C821.744 234.018 818.424 246.811 811.783 257.455C805.143 268.002 795.621 275.912 783.219 281.186L829.508 366H778.531L737.223 288.656H703.531V366H657.535ZM703.531 251.596H734.732C761.1 251.596 774.283 240.756 774.283 219.076C774.283 208.236 771.012 199.936 764.469 194.174C757.926 188.412 747.965 185.531 734.586 185.531H703.531V251.596ZM833.703 366V147.738H879.699V327.914H973.303V366H833.703ZM1060.55 366H983.211V147.738H1061.14C1083.11 147.738 1102.01 152.133 1117.83 160.922C1133.65 169.613 1145.81 182.113 1154.3 198.422C1162.9 214.633 1167.2 234.066 1167.2 256.723C1167.2 279.477 1162.9 299.008 1154.3 315.316C1145.81 331.625 1133.6 344.174 1117.68 352.963C1101.77 361.654 1082.72 366 1060.55 366ZM1029.21 326.449H1058.5C1079.11 326.449 1094.73 320.932 1105.38 309.896C1116.02 298.861 1121.35 281.137 1121.35 256.723C1121.35 232.504 1116.02 214.877 1105.38 203.842C1094.73 192.807 1079.11 187.289 1058.5 187.289H1029.21V326.449Z" fill="url(#paint0_linear_10_2)"/>
</g>
<g filter="url(#filter1_d_10_2)">
<path d="M251.742 528.758C239.496 528.758 228.715 526.062 219.398 520.672C210.141 515.223 202.904 507.488 197.689 497.469C192.533 487.391 189.955 475.467 189.955 461.697C189.955 447.518 192.65 435.418 198.041 425.398C203.432 415.32 210.756 407.615 220.014 402.283C229.271 396.951 239.672 394.285 251.215 394.285C261.117 394.285 270.053 396.16 278.021 399.91C286.049 403.66 292.611 408.846 297.709 415.467C302.865 422.088 306.029 429.734 307.201 438.406H279.164C277.348 432.254 274.096 427.449 269.408 423.992C264.721 420.477 258.803 418.719 251.654 418.719C241.635 418.719 233.52 422.439 227.309 429.881C221.098 437.264 217.992 447.781 217.992 461.434C217.992 475.086 221.039 485.662 227.133 493.162C233.285 500.604 241.576 504.324 252.006 504.324C261.146 504.324 268.324 501.951 273.539 497.205C278.812 492.4 281.537 485.926 281.713 477.781H253.676V456.951H308.52V473.475C308.52 484.959 306.088 494.832 301.225 503.094C296.361 511.355 289.652 517.713 281.098 522.166C272.543 526.561 262.758 528.758 251.742 528.758ZM320.262 527V396.043H371.766C386.648 396.043 398.191 399.939 406.395 407.732C414.656 415.525 418.787 425.896 418.787 438.846C418.787 447.811 416.795 455.486 412.811 461.873C408.826 468.201 403.113 472.947 395.672 476.111L423.445 527H392.859L368.074 480.594H347.859V527H320.262ZM347.859 458.357H366.58C382.4 458.357 390.311 451.854 390.311 438.846C390.311 432.342 388.348 427.361 384.422 423.904C380.496 420.447 374.52 418.719 366.492 418.719H347.859V458.357ZM429.562 527V396.043H517.805V418.895H457.16V449.656H513.146V472.068H457.16V504.148H517.98V527H429.562ZM530.777 527V396.043H619.02V418.895H558.375V449.656H614.361V472.068H558.375V504.148H619.195V527H530.777ZM741.504 396.043V527H717.51L660.645 444.646H659.59V527H631.992V396.043H656.25L712.764 478.396H713.906V396.043H741.504ZM788.191 527V396.043H815.789V504.148H871.951V527H788.191ZM909.094 396.043V527H881.496V396.043H909.094ZM1032.46 396.043V527H1008.46L951.598 444.646H950.543V527H922.945V396.043H947.203L1003.72 478.396H1004.86V396.043H1032.46ZM1046.31 527V396.043H1134.55V418.895H1073.91V449.656H1129.89V472.068H1073.91V504.148H1134.73V527H1046.31Z" fill="url(#paint1_linear_10_2)"/>
</g>
<g filter="url(#filter2_d_10_2)">
<path d="M663 250C816.935 250 956.061 269.262 1056.5 300.257C1106.76 315.766 1147 334.111 1174.53 354.202C1202.2 374.388 1216 395.514 1216 416.5C1216 437.486 1202.2 458.612 1174.53 478.798C1147 498.889 1106.76 517.234 1056.5 532.743C956.061 563.738 816.935 583 663 583C509.065 583 369.939 563.738 269.496 532.743C219.239 517.234 179.005 498.889 151.466 478.798C123.798 458.612 110 437.486 110 416.5C110 395.514 123.798 374.388 151.466 354.202C179.005 334.111 219.239 315.766 269.496 300.257C369.939 269.262 509.065 250 663 250Z" stroke="url(#paint2_linear_10_2)" stroke-width="12" shape-rendering="crispEdges"/>
</g>
<defs>
<filter id="filter0_d_10_2" x="140.844" y="144.809" width="1044.35" height="245.121" filterUnits="userSpaceOnUse" color-interpolation-filters="sRGB">
<feFlood flood-opacity="0" result="BackgroundImageFix"/>
<feColorMatrix in="SourceAlpha" type="matrix" values="0 0 0 0 0 0 0 0 0 0 0 0 0 0 0 0 0 0 127 0" result="hardAlpha"/>
<feOffset dx="12" dy="15"/>
<feGaussianBlur stdDeviation="3"/>
<feComposite in2="hardAlpha" operator="out"/>
<feColorMatrix type="matrix" values="0 0 0 0 0 0 0 0 0 0 0 0 0 0 0 0 0 0 0.25 0"/>
<feBlend mode="normal" in2="BackgroundImageFix" result="effect1_dropShadow_10_2"/>
<feBlend mode="normal" in="SourceGraphic" in2="effect1_dropShadow_10_2" result="shape"/>
</filter>
<filter id="filter1_d_10_2" x="189.955" y="394.285" width="959.771" height="150.473" filterUnits="userSpaceOnUse" color-interpolation-filters="sRGB">
<feFlood flood-opacity="0" result="BackgroundImageFix"/>
<feColorMatrix in="SourceAlpha" type="matrix" values="0 0 0 0 0 0 0 0 0 0 0 0 0 0 0 0 0 0 127 0" result="hardAlpha"/>
<feOffset dx="9" dy="10"/>
<feGaussianBlur stdDeviation="3"/>
<feComposite in2="hardAlpha" operator="out"/>
<feColorMatrix type="matrix" values="0 0 0 0 0 0 0 0 0 0 0 0 0 0 0 0 0 0 0.25 0"/>
<feBlend mode="normal" in2="BackgroundImageFix" result="effect1_dropShadow_10_2"/>
<feBlend mode="normal" in="SourceGraphic" in2="effect1_dropShadow_10_2" result="shape"/>
</filter>
<filter id="filter2_d_10_2" x="100" y="244" width="1126" height="353" filterUnits="userSpaceOnUse" color-interpolation-filters="sRGB">
<feFlood flood-opacity="0" result="BackgroundImageFix"/>
<feColorMatrix in="SourceAlpha" type="matrix" values="0 0 0 0 0 0 0 0 0 0 0 0 0 0 0 0 0 0 127 0" result="hardAlpha"/>
<feOffset dy="4"/>
<feGaussianBlur stdDeviation="2"/>
<feComposite in2="hardAlpha" operator="out"/>
<feColorMatrix type="matrix" values="0 0 0 0 0 0 0 0 0 0 0 0 0 0 0 0 0 0 0.25 0"/>
<feBlend mode="normal" in2="BackgroundImageFix" result="effect1_dropShadow_10_2"/>
<feBlend mode="normal" in="SourceGraphic" in2="effect1_dropShadow_10_2" result="shape"/>
</filter>
<linearGradient id="paint0_linear_10_2" x1="659" y1="136" x2="659" y2="367" gradientUnits="userSpaceOnUse">
<stop offset="0.416535" stop-color="#538DFF"/>
<stop offset="0.85593" stop-color="#8BFF60"/>
</linearGradient>
<linearGradient id="paint1_linear_10_2" x1="698" y1="400.5" x2="695.5" y2="595.5" gradientUnits="userSpaceOnUse">
<stop offset="0.256859" stop-color="#FF7B48"/>
<stop offset="0.749896" stop-color="#994524"/>
</linearGradient>
<linearGradient id="paint2_linear_10_2" x1="691.5" y1="260.5" x2="699.5" y2="589" gradientUnits="userSpaceOnUse">
<stop stop-color="#8BFF60"/>
<stop offset="0.582947" stop-color="#666666" stop-opacity="0"/>
</linearGradient>
</defs>
</svg>
